<svg width="156" height="44" viewBox="0 0 156 44" fill="none" xmlns="http://www.w3.org/2000/svg">
<path d="M32.3965 0H11.1473C4.99082 0 0 5.0431 0 11.2641V32.7359C0 38.9569 4.99082 44 11.1473 44H32.3965C38.553 44 43.5438 38.9569 43.5438 32.7359V11.2641C43.5438 5.0431 38.553 0 32.3965 0Z" fill="#AFFF00"/>
<path d="M9.72368 9.18408H17.7066C18.9557 9.18408 20.0658 9.68555 20.793 10.578L24.9653 15.6964L26.1016 9.18408H35.021L33.8089 16.1305H24.8981L21.6372 34.8165H14.5421L16.6293 22.8544C16.9034 21.2836 17.9267 19.8139 19.3647 18.9272L23.8984 16.1305H8.52278L9.72368 9.18408Z" fill="black"/>
<path d="M65.2449 20.471L64.3557 25.5673C63.7593 28.9851 64.2602 29.8544 67.3455 29.8544C68.9478 29.8544 69.8377 29.8544 71.9372 29.5547L71.2153 33.6915C69.4719 33.9909 67.5174 34.1412 65.1736 34.1412C60.6642 34.1412 58.0548 32.4324 58.7351 28.5348L60.1423 20.4707H55.5438L56.2918 16.1836H60.8903L61.5285 12.5262L66.8878 11.0571L65.9932 16.1836H74.2703L73.5224 20.4707H65.2452L65.2449 20.471Z" fill="white"/>
<path d="M81.4194 16.1839L78.3383 33.8414H73.2653L76.3464 16.1839H81.4194Z" fill="white"/>
<path d="M82.5232 9.85846L81.7438 14.3253L77.4502 9.85846H82.5232Z" fill="white"/>
<path d="M91.0902 25.028L82.8134 16.1843H89.637L95.0251 22.0303L102.453 16.1843H109.277L97.8841 25.028L106.196 33.8414H99.3723L93.9841 27.9955L86.5559 33.8414H79.7323L91.0902 25.028Z" fill="white"/>
<path d="M105.953 25.028C107.088 18.5228 112.414 15.8846 119.653 15.8846C126.892 15.8846 131.297 18.5228 130.162 25.028C129.032 31.503 123.676 34.1415 116.467 34.1415C109.258 34.1415 104.823 31.5033 105.953 25.028H105.953ZM125.059 25.028C125.702 21.3404 123.592 20.1717 118.905 20.1717C114.217 20.1717 111.67 21.3404 111.026 25.028C110.388 28.6854 112.498 29.8544 117.215 29.8544C121.932 29.8544 124.421 28.6854 125.059 25.028Z" fill="white"/>
<path d="M131.614 25.028C132.749 18.5228 138.075 15.8846 145.314 15.8846C152.553 15.8846 156.958 18.5228 155.822 25.028C154.693 31.503 149.337 34.1415 142.128 34.1415C134.919 34.1415 130.484 31.5033 131.614 25.028ZM150.72 25.028C151.363 21.3404 149.253 20.1717 144.566 20.1717C139.878 20.1717 137.331 21.3404 136.687 25.028C136.049 28.6854 138.159 29.8544 142.876 29.8544C147.593 29.8544 150.082 28.6854 150.72 25.028Z" fill="white"/>
</svg>
