<svg width="40" height="40" viewBox="0 0 40 40" fill="none" xmlns="http://www.w3.org/2000/svg">
<circle cx="19.9377" cy="19.9377" r="17.4455" fill="#1ED760"/>
<path d="M27.8683 26.9445C27.5703 27.4174 26.9345 27.5498 26.4377 27.2661C22.5233 24.996 17.6154 24.4853 11.8134 25.7338C11.257 25.8473 10.7007 25.5257 10.5814 24.996C10.4622 24.4664 10.8 23.9367 11.3564 23.8232C17.6949 22.4423 23.1393 23.0287 27.5107 25.5825C28.0074 25.8662 28.1664 26.4716 27.8683 26.9445ZM29.8951 22.6314C29.5176 23.2179 28.7228 23.3881 28.1068 23.0476C23.636 20.4181 16.8206 19.6615 11.5352 21.1937C10.8398 21.3829 10.1244 21.0235 9.92573 20.3803C9.72703 19.7182 10.1046 19.0372 10.8 18.848C16.8405 17.1077 24.3514 17.94 29.4977 20.9478C30.0739 21.2883 30.2726 22.045 29.8951 22.6314ZM30.0739 18.1292C24.709 15.1025 15.8669 14.8187 10.7404 16.2943C9.92573 16.5402 9.05145 16.1051 8.79314 15.3106C8.53483 14.535 9.01171 13.7026 9.82638 13.4567C15.7079 11.7542 25.4839 12.0947 31.6436 15.5754C32.3788 15.9916 32.6173 16.8996 32.1801 17.5995C31.7629 18.3184 30.8091 18.5643 30.0739 18.1292Z" fill="white"/>
</svg>
