<svg width="40" height="40" viewBox="0 0 40 40" fill="none" xmlns="http://www.w3.org/2000/svg">
<path d="M2.7969 12.3877C2.95706 9.92196 4.9395 7.98954 7.40744 7.86727C10.9812 7.69022 16.0891 7.47668 19.9377 7.47668C23.7863 7.47668 28.8942 7.69022 32.468 7.86727C34.9359 7.98954 36.9183 9.92196 37.0785 12.3877C37.2319 14.7501 37.3832 17.6569 37.3832 19.9377C37.3832 22.2185 37.2319 25.1254 37.0785 27.4878C36.9183 29.9535 34.9359 31.8859 32.468 32.0082C28.8942 32.1853 23.7863 32.3988 19.9377 32.3988C16.0891 32.3988 10.9812 32.1853 7.40744 32.0082C4.93951 31.8859 2.95706 29.9535 2.7969 27.4878C2.64345 25.1254 2.49222 22.2185 2.49222 19.9377C2.49222 17.6569 2.64345 14.7501 2.7969 12.3877Z" fill="#FC0D1B"/>
<path d="M16.1994 14.9532V24.9221L26.1682 19.9377L16.1994 14.9532Z" fill="white"/>
</svg>
