<svg width="40" height="40" viewBox="0 0 40 40" fill="none" xmlns="http://www.w3.org/2000/svg">
<path d="M19.9377 37.3832C29.5726 37.3832 37.3832 29.5725 37.3832 19.9377C37.3832 10.3028 29.5726 2.49219 19.9377 2.49219C10.3028 2.49219 2.49222 10.3028 2.49222 19.9377C2.49222 29.5725 10.3028 37.3832 19.9377 37.3832Z" fill="#FF0000"/>
<path d="M19.9377 11.9812C24.3256 11.9812 27.8944 15.5499 27.8944 19.9378C27.8944 24.3257 24.3256 27.8945 19.9377 27.8945C15.5498 27.8945 11.9811 24.3257 11.9811 19.9378C11.9811 15.5499 15.5498 11.9812 19.9377 11.9812ZM19.9377 11.2151C15.1193 11.2151 11.215 15.1195 11.215 19.9378C11.215 24.7562 15.1193 28.6606 19.9377 28.6606C24.7561 28.6606 28.6604 24.7562 28.6604 19.9378C28.6604 15.1195 24.7561 11.2151 19.9377 11.2151Z" fill="white"/>
<path d="M17.4455 24.9221L24.9221 19.721L17.4455 14.9532V24.9221Z" fill="white"/>
</svg>
